<svg width="103" height="128" viewBox="0 0 103 128" fill="none" xmlns="http://www.w3.org/2000/svg">
<g opacity="0.5">
<path opacity="0.5" d="M51.5001 101.602C55.4179 101.602 58.594 98.4383 58.594 94.5354C58.594 90.6325 55.4179 87.4686 51.5001 87.4686C47.5823 87.4686 44.4062 90.6325 44.4062 94.5354C44.4062 98.4383 47.5823 101.602 51.5001 101.602Z" fill="#F59DB6"/>
</g>
<path fill-rule="evenodd" clip-rule="evenodd" d="M84.1875 118.923L72.1558 113.311C71.1821 112.826 69.9998 113.311 69.5825 114.281L63.9491 126.267C63.1841 127.86 60.9586 127.722 60.3327 126.128L48.0923 92.7341C47.7445 91.6949 48.2314 90.5863 49.2746 90.2399L72.1558 81.9261C73.199 81.5797 74.3117 82.0646 74.6595 83.1039L86.8998 116.498C87.4562 118.091 85.7871 119.616 84.1875 118.923Z" fill="#EAC9F8"/>
<path d="M62.2107 124.742C62.2107 124.742 62.1412 124.742 62.2107 124.742C61.863 124.742 61.5848 124.535 61.5153 124.257L49.7617 92.1106L49.8313 91.9028C49.9008 91.8335 49.9704 91.6949 50.0399 91.6949L72.5038 83.5196C72.7124 83.4503 72.9906 83.5196 73.0602 83.7967L84.7442 115.805C84.8833 116.082 84.7442 116.429 84.5355 116.636C84.3269 116.844 83.9791 116.914 83.701 116.775L72.8515 111.717C72.2951 111.44 71.6692 111.371 71.1128 111.371C69.7219 111.44 68.5396 112.341 67.9136 113.657L62.9062 124.257C62.7671 124.604 62.4889 124.742 62.2107 124.742ZM50.5267 92.3184L62.1412 123.98C62.1412 123.98 62.1412 124.05 62.2107 124.05C62.2803 124.05 62.2803 124.05 62.2803 123.98L67.2877 113.38C68.0527 111.787 69.5132 110.747 71.1128 110.678C71.8779 110.609 72.5733 110.747 73.1993 111.094L84.0487 116.151H84.1182V116.082L72.5038 84.351L50.5267 92.3184Z" fill="white"/>
<path fill-rule="evenodd" clip-rule="evenodd" d="M18.8129 118.923L30.8446 113.311C31.8183 112.826 33.0006 113.311 33.4179 114.281L39.0512 126.267C39.8162 127.86 42.0418 127.722 42.6677 126.128L54.9081 92.6648C55.2558 91.6256 54.769 90.5171 53.7258 90.1707L30.8446 81.8568C29.8014 81.5104 28.6886 81.9954 28.3409 83.0346L16.1005 116.429C15.5441 118.091 17.2133 119.616 18.8129 118.923Z" fill="#EAC9F8"/>
<path d="M40.79 124.742C40.5118 124.742 40.2336 124.604 40.0945 124.327L35.0871 113.727C34.4611 112.41 33.2093 111.51 31.8879 111.44C31.262 111.44 30.7056 111.51 30.1492 111.787L19.2998 116.844C19.0216 116.983 18.6738 116.914 18.4652 116.706C18.2565 116.498 18.187 116.151 18.2565 115.874L30.0101 83.7274L30.1492 83.6581C30.2187 83.5888 30.3578 83.5888 30.4969 83.6581L53.0999 91.9027L53.1694 92.0412C53.239 92.1105 53.239 92.2491 53.1694 92.3876L41.4854 124.396C41.4159 124.535 41.1377 124.742 40.79 124.742C40.8595 124.742 40.79 124.742 40.79 124.742ZM35.7825 113.38L40.79 123.98C40.79 123.98 40.79 124.05 40.8595 124.05C40.9291 124.05 40.9291 123.98 40.9291 123.98L52.5435 92.2491L30.5665 84.2816L18.952 116.013V116.082C19.0216 116.082 19.0216 116.082 19.0216 116.082L29.871 111.025C30.4969 110.747 31.262 110.609 31.9574 110.609C33.557 110.817 35.0175 111.787 35.7825 113.38Z" fill="white"/>
<g opacity="0.5">
<path opacity="0.5" d="M51.5001 95.436C53.459 95.436 55.047 93.8541 55.047 91.9026C55.047 89.9512 53.459 88.3693 51.5001 88.3693C49.5411 88.3693 47.9531 89.9512 47.9531 91.9026C47.9531 93.8541 49.5411 95.436 51.5001 95.436Z" fill="#F59DB6"/>
</g>
<path fill-rule="evenodd" clip-rule="evenodd" d="M57.5509 2.66738L60.8196 4.53799C62.6974 5.64651 64.7838 6.20076 66.8702 6.20076H70.6258C74.9378 6.20076 78.9715 8.48707 81.1275 12.2283L83.0053 15.4846C84.0485 17.2859 85.5785 18.8101 87.4563 19.9186L90.7251 21.7892C94.4806 23.937 96.7757 27.8861 96.7757 32.2508V35.9921C96.7757 38.1398 97.3321 40.2183 98.3753 42.0196L100.253 45.2759C102.409 49.0171 102.409 53.5897 100.253 57.331L98.3753 60.5872C97.3321 62.3885 96.7757 64.467 96.7757 66.6148V70.356C96.7757 74.6515 94.4806 78.6698 90.7251 80.8176L87.4563 82.6882C85.6481 83.7274 84.118 85.2516 83.0053 87.1223L81.1275 90.3785C78.9715 94.1198 75.0073 96.4061 70.6258 96.4061H66.8702C64.7143 96.4061 62.6278 96.9603 60.8196 97.9995L57.5509 99.8702C53.7953 102.018 49.2051 102.018 45.4496 99.8702L42.1808 97.9995C40.3726 96.9603 38.2862 96.4061 36.1302 96.4061H32.3746C28.0627 96.4061 24.0289 94.1198 21.8729 90.3785L19.9952 87.1223C18.9519 85.3209 17.4219 83.7967 15.5441 82.6882L12.2754 80.8176C8.5198 78.6698 6.22473 74.7208 6.22473 70.356V66.6148C6.22473 64.467 5.66835 62.3885 4.62514 60.5872L2.74735 57.331C0.591377 53.5897 0.591377 49.0171 2.74735 45.2759L4.62514 42.0196C5.66835 40.2183 6.22473 38.1398 6.22473 35.9921V32.2508C6.22473 27.9553 8.5198 23.937 12.2754 21.7892L15.5441 19.9186C17.3523 18.8794 18.8824 17.3552 19.9952 15.4846L21.8729 12.2283C24.0289 8.48707 27.9931 6.20076 32.3746 6.20076H36.1302C38.2862 6.20076 40.3726 5.64651 42.1808 4.60727L45.4496 2.73666C49.2051 0.519631 53.7953 0.519631 57.5509 2.66738Z" fill="white"/>
<path d="M51.5 102.641C49.2049 102.641 46.9099 102.087 44.893 100.909L41.6242 99.0388C39.9551 98.0688 38.0773 97.5838 36.13 97.5838H32.3744C27.6452 97.5838 23.2637 95.0897 20.8991 91.002L19.0213 87.7458C18.0476 86.083 16.6567 84.6974 14.9875 83.7274L11.7188 81.8568C7.61546 79.5012 5.11175 75.1364 5.11175 70.4253V66.684C5.11175 64.7441 4.62492 62.8735 3.65125 61.2107L1.77346 57.9545C-0.591155 53.8668 -0.591155 48.8092 1.77346 44.7909L3.65125 41.5346C4.62492 39.8718 5.11175 38.0012 5.11175 36.0613V32.3201C5.11175 27.6089 7.61546 23.2441 11.7188 20.8886L14.9875 19.0179C16.6567 17.9787 18.0476 16.5931 19.0213 14.9303L20.8991 11.674C23.2637 7.58639 27.6452 5.09223 32.3744 5.09223H36.13C38.0773 5.09223 39.9551 4.60726 41.6242 3.63731L44.893 1.76669C48.9963 -0.588898 54.0733 -0.588898 58.107 1.76669L61.3758 3.63731C63.0449 4.60726 64.9227 5.09223 66.87 5.09223H70.6256C75.3548 5.09223 79.7363 7.58639 82.1009 11.674L83.9787 14.9303C84.9524 16.5931 86.3433 17.9787 88.0125 18.9487L91.2812 20.8193C95.3845 23.1749 97.8882 27.5396 97.8882 32.2508V35.9921C97.8882 37.932 98.3751 39.8026 99.3487 41.4653L101.227 44.7216C103.591 48.8092 103.591 53.8668 101.227 57.8852L99.3487 61.1415C98.3751 62.8042 97.8882 64.6748 97.8882 66.6147V70.356C97.8882 75.0672 95.3845 79.4319 91.2812 81.7875L88.0125 83.6581C86.3433 84.6281 84.9524 86.0137 83.9787 87.6765L82.1009 90.9328C79.7363 95.0204 75.3548 97.5146 70.6256 97.5146H66.87C64.9227 97.5146 63.0449 97.9995 61.3758 98.9695L58.107 100.84C56.0901 102.087 53.7951 102.641 51.5 102.641ZM32.3744 7.30926C28.4797 7.30926 24.8633 9.38773 22.8464 12.7825L20.9686 16.0388C19.7863 18.048 18.1172 19.7108 16.1003 20.8886L12.8315 22.7592C9.4237 24.6991 7.33727 28.3017 7.33727 32.2508V35.9921C7.33727 38.2784 6.71134 40.5647 5.59858 42.5739L3.7208 45.8301C1.77346 49.2249 1.77346 53.3819 3.7208 56.7767L5.59858 60.0329C6.78089 62.0421 7.33727 64.3284 7.33727 66.6147V70.356C7.33727 74.2358 9.4237 77.8384 12.8315 79.8476L16.1003 81.7182C18.1172 82.896 19.7863 84.5588 20.9686 86.568L22.8464 89.8242C24.7937 93.2191 28.4102 95.2975 32.3744 95.2975H36.13C38.425 95.2975 40.7201 95.9211 42.737 97.0296L46.0057 98.9002C49.4136 100.84 53.5864 100.84 56.9943 98.9002L60.263 97.0296C62.2799 95.8518 64.5749 95.2975 66.87 95.2975H70.6256C74.5202 95.2975 78.1367 93.2191 80.1536 89.8242L82.0314 86.568C83.2137 84.5588 84.8828 82.896 86.8997 81.7182L90.1685 79.8476C93.5763 77.9077 95.6627 74.3051 95.6627 70.356V66.6147C95.6627 64.3284 96.2887 62.0421 97.4014 60.0329L99.2792 56.7767C101.227 53.3819 101.227 49.2249 99.2792 45.8301L97.4014 42.5739C96.2191 40.5647 95.6627 38.2784 95.6627 35.9921V32.2508C95.6627 28.371 93.5763 24.7684 90.1685 22.7592L86.8997 20.8886C84.8828 19.7108 83.2137 18.048 82.0314 16.0388L80.1536 12.7825C78.2063 9.38773 74.5898 7.30926 70.6256 7.30926H66.87C64.5749 7.30926 62.2799 6.68572 60.263 5.57721L56.9943 3.70659C53.5864 1.76669 49.4136 1.76669 46.0057 3.70659L42.737 5.57721C40.7201 6.75501 38.425 7.30926 36.13 7.30926H32.3744Z" fill="#5E58A5"/>
<path d="M31.1919 45.068C30.705 44.1673 30.0791 43.4052 29.175 42.9895C28.3404 42.5045 27.2972 42.2967 26.1149 42.2967H21.5248C20.4815 42.2967 19.647 43.1281 19.647 44.1673V45.2065V62.1807C19.647 62.3885 19.7165 62.5271 19.7861 62.6656C19.8556 62.8042 19.9947 62.8735 20.2034 62.8735H21.4552C21.5943 62.8735 21.7334 62.8042 21.8725 62.6656C21.942 62.5271 22.0116 62.3885 22.0116 62.1807V55.391C22.0116 55.0446 22.2898 54.8368 22.568 54.8368H26.1844C27.3668 54.8368 28.3404 54.6289 29.2445 54.1439C30.1487 53.659 30.7746 52.9661 31.2614 52.0655C31.7483 51.1648 31.9569 49.987 31.9569 48.6014C31.8874 47.2157 31.6092 46.0379 31.1919 45.068ZM28.6186 51.3726C28.0622 51.9962 27.1581 52.3426 25.9758 52.3426H22.4984C22.1507 52.3426 21.8725 52.0655 21.8725 51.7191V45.2758C21.8725 44.9294 22.1507 44.6523 22.4984 44.6523H25.9758C27.1581 44.6523 28.0622 44.9987 28.6186 45.6222C29.175 46.3151 29.4532 47.2157 29.4532 48.4628C29.5227 49.8484 29.2445 50.7491 28.6186 51.3726Z" fill="#5E58A5"/>
<path d="M21.3859 62.8735H20.134C19.9254 62.8735 19.7863 62.8042 19.7167 62.6656C19.6472 62.5271 19.5776 62.3885 19.5776 62.1807V44.1673C19.5776 43.1281 20.4122 42.2274 21.525 42.2274H26.1847C27.367 42.2274 28.4102 42.4353 29.2448 42.9202C30.0793 43.4052 30.7748 44.098 31.2616 45.068C31.7485 45.9686 31.9571 47.1464 31.9571 48.5321C31.9571 49.9177 31.7485 51.0955 31.2616 51.9962C30.7748 52.8969 30.0793 53.659 29.2448 54.0747C28.4102 54.5596 27.367 54.7675 26.1847 54.7675H22.5682C22.29 54.7675 22.0118 54.9753 22.0118 55.3217V62.1114C22.0118 62.3192 21.9423 62.4578 21.8727 62.5964C21.7336 62.8042 21.5945 62.8735 21.3859 62.8735ZM21.525 42.366C20.4818 42.366 19.6472 43.1974 19.6472 44.2366V62.2499C19.6472 62.4578 19.7167 62.5964 19.7863 62.7349C19.8558 62.8735 19.9949 62.9428 20.134 62.9428H21.3859C21.525 62.9428 21.6641 62.8735 21.8032 62.7349C21.8727 62.5964 21.9423 62.4578 21.9423 62.2499V55.391C21.9423 55.0446 22.2204 54.7675 22.5682 54.7675H26.1847C27.367 54.7675 28.3406 54.5596 29.1752 54.0747C30.0098 53.5897 30.7053 52.8969 31.1225 51.9962C31.6094 51.0955 31.818 49.9177 31.818 48.5321C31.818 47.1464 31.6094 45.9686 31.1225 45.068C30.6357 44.1673 30.0098 43.4745 29.1752 42.9895C28.3406 42.5045 27.2974 42.2967 26.1847 42.2967H21.525V42.366ZM26.0456 52.4119H22.5682C22.2204 52.4119 21.9423 52.1348 21.9423 51.7884V45.3451C21.9423 44.9987 22.2204 44.7216 22.5682 44.7216H26.0456C27.2279 44.7216 28.132 45.068 28.6884 45.7608C29.2448 46.4536 29.5229 47.3543 29.5229 48.6014C29.5229 49.8484 29.2448 50.8184 28.6188 51.4419C28.0624 52.0655 27.1583 52.4119 26.0456 52.4119ZM22.5682 44.7909C22.29 44.7909 22.0118 45.068 22.0118 45.3451V51.7884C22.0118 52.0655 22.29 52.3426 22.5682 52.3426H26.0456C27.1583 52.3426 28.0624 51.9962 28.6188 51.3727C29.1752 50.7491 29.4534 49.7792 29.4534 48.6014C29.4534 47.4236 29.1752 46.4536 28.6188 45.8301C28.0624 45.2065 27.1583 44.8601 25.976 44.8601H22.5682V44.7909Z" fill="#5E58A5"/>
<path d="M53.6563 62.8735C53.5172 62.8735 53.4476 62.8042 53.3085 62.6656C53.239 62.5271 53.1694 62.3885 53.1694 62.2499C53.1694 62.1807 53.1694 62.0421 53.1694 61.9035L59.0114 42.9202C59.081 42.7124 59.1505 42.5738 59.2896 42.4353C59.4287 42.2967 59.5678 42.2274 59.7765 42.2274H61.3761C61.5847 42.2274 61.7933 42.2967 61.8629 42.4353C62.002 42.5738 62.0715 42.7124 62.1411 42.9202L67.9831 61.9035C67.9831 62.0421 68.0526 62.1114 68.0526 62.2499C68.0526 62.3885 67.9831 62.5271 67.9135 62.6656C67.844 62.8042 67.7049 62.8735 67.5658 62.8735H66.3835C66.1748 62.8735 66.0357 62.8042 65.9662 62.6656C65.8966 62.5271 65.8271 62.4578 65.7575 62.3192L64.6448 58.6473C64.5057 58.3701 64.297 58.1623 63.9493 58.1623H57.2032C56.925 58.1623 56.6468 58.3701 56.5773 58.6473L55.395 62.3885C55.395 62.4578 55.3254 62.5964 55.2559 62.7349C55.1863 62.8735 55.0472 62.9428 54.8386 62.9428H53.6563V62.8735ZM57.7596 55.6681H63.3929C63.6016 55.6681 63.6711 55.4603 63.6711 55.3217L60.8197 46.1072C60.7501 45.8301 60.4024 45.8301 60.3328 46.1072L57.4814 55.3217C57.4814 55.4603 57.6205 55.6681 57.7596 55.6681Z" fill="#5E58A5"/>
<path d="M67.5655 62.8735H66.3832C66.1746 62.8735 66.0355 62.8042 65.9659 62.6656C65.8964 62.5271 65.8268 62.4578 65.7573 62.3192L64.575 58.578C64.5054 58.3009 64.2272 58.1623 63.949 58.1623H57.2029C56.9247 58.1623 56.7161 58.3701 56.577 58.578L55.3947 62.3192C55.3947 62.3885 55.3251 62.5271 55.2556 62.6656C55.186 62.8042 54.9774 62.8735 54.7688 62.8735H53.5864C53.4473 62.8735 53.3083 62.8042 53.2387 62.6656C53.1692 62.5271 53.0996 62.3885 53.0996 62.2499C53.0996 62.1807 53.0996 62.0421 53.0996 61.9035L59.0112 42.9202C59.0807 42.7124 59.1503 42.5738 59.2893 42.4353C59.4284 42.2967 59.5675 42.2274 59.8457 42.2274H61.4453C61.654 42.2274 61.8626 42.2967 62.0017 42.4353C62.1408 42.5738 62.2103 42.7124 62.2799 42.9202L68.1219 61.9035C68.1219 62.0421 68.1914 62.1114 68.1914 62.2499C68.1914 62.3885 68.1219 62.5964 68.0523 62.6656C67.8437 62.8042 67.7046 62.8735 67.5655 62.8735ZM57.2029 58.1623H63.949C64.2272 58.1623 64.5054 58.3701 64.6445 58.6473L65.8268 62.3885C65.8268 62.4578 65.8964 62.5964 65.9659 62.6656C66.0355 62.8042 66.1746 62.8042 66.3137 62.8042H67.496C67.6351 62.8042 67.7046 62.7349 67.7742 62.6656C67.8437 62.5271 67.9132 62.4578 67.9132 62.2499C67.9132 62.1807 67.9132 62.0421 67.8437 61.9035L62.1408 42.9202C62.0712 42.7124 62.0017 42.5738 61.8626 42.4353C61.7931 42.2967 61.5844 42.2967 61.3758 42.2967H59.7762C59.5675 42.2967 59.4284 42.366 59.2893 42.4353C59.1503 42.5738 59.0807 42.7124 59.0112 42.9202L53.1692 61.9035C53.1692 62.0421 53.1692 62.1114 53.1692 62.1807C53.1692 62.3192 53.2387 62.4578 53.3082 62.5964C53.3778 62.7349 53.5169 62.7349 53.5864 62.7349H54.7688C54.9774 62.7349 55.0469 62.6656 55.186 62.5964C55.2556 62.4578 55.3251 62.3885 55.3251 62.3192L56.5074 58.578C56.6465 58.3701 56.9247 58.1623 57.2029 58.1623ZM63.3927 55.6681H57.7593C57.6897 55.6681 57.5507 55.5989 57.4811 55.5296C57.4116 55.4603 57.4116 55.3217 57.4116 55.2525L60.263 46.0379C60.3326 45.8994 60.4021 45.8301 60.5412 45.8301C60.6803 45.8301 60.8194 45.8994 60.8194 46.0379L63.6708 55.2525C63.6708 55.3217 63.6708 55.4603 63.6013 55.5296C63.5317 55.5989 63.5317 55.6681 63.3927 55.6681ZM60.6107 45.8994C60.5412 45.8994 60.4021 45.9687 60.4021 46.0379L57.5507 55.2525C57.5507 55.3217 57.5507 55.391 57.6202 55.4603C57.6898 55.5296 57.7593 55.5296 57.8288 55.5296H63.4622C63.5318 55.5296 63.6013 55.5296 63.6708 55.4603C63.7404 55.391 63.7404 55.3217 63.7404 55.2525L60.8889 46.0379C60.7498 45.9687 60.6803 45.8994 60.6107 45.8994Z" fill="#5E58A5"/>
<path d="M41.6244 62.1807L36.4779 53.4511C35.9911 52.6198 35.9911 51.5805 36.4779 50.8184L41.5549 42.6431C42.0417 41.8117 43.2936 41.8117 43.7804 42.6431L48.8574 50.8877C49.3442 51.7191 49.3442 52.689 48.9269 53.5204L43.9195 62.25C43.4327 63.0121 42.1808 63.0121 41.6244 62.1807Z" fill="#5E58A5"/>
<path d="M42.8067 62.8735C42.3199 62.8735 41.9026 62.5964 41.6244 62.1807L36.4779 53.4511C35.9911 52.6198 35.9911 51.5805 36.4779 50.7491L41.5549 42.5739C41.8331 42.1582 42.2504 41.9503 42.7372 41.9503C43.224 41.9503 43.6413 42.1582 43.9195 42.5739L48.9965 50.8184C49.4833 51.6498 49.4833 52.6198 49.066 53.4511L44.0586 62.1807C43.7109 62.5964 43.2936 62.8735 42.8067 62.8735ZM41.694 62.1114C41.9026 62.5271 42.3199 62.7349 42.8067 62.7349C43.2936 62.7349 43.7109 62.4578 43.9195 62.1114L48.9269 53.3819C49.4138 52.5505 49.3442 51.5805 48.8574 50.8184L43.7804 42.5739C43.5718 42.1582 43.1545 41.9503 42.6677 41.9503C42.1808 41.9503 41.8331 42.1582 41.5549 42.5739L36.4779 50.7491C35.9911 51.5805 35.9911 52.5505 36.4779 53.3819L41.694 62.1114Z" fill="#5E58A5"/>
<path d="M42.3891 58.7166L38.703 52.4119C38.6335 52.2733 38.6335 52.1347 38.703 51.9962L42.3891 46.0379C42.5282 45.7608 42.9454 45.7608 43.0845 46.0379L46.7706 51.9962C46.8401 52.1347 46.8401 52.2733 46.7706 52.4119L43.1541 58.7166C42.9454 58.9937 42.5977 58.9937 42.3891 58.7166Z" fill="white"/>
<path d="M84.4655 45.068C83.9787 44.1673 83.3528 43.4052 82.4486 42.9895C81.6141 42.5045 80.5709 42.2967 79.3885 42.2967H74.7289C73.6856 42.2967 72.8511 43.1281 72.8511 44.1673V45.2065V62.1807C72.8511 62.3885 72.9206 62.5271 72.9902 62.6656C73.0597 62.8042 73.1988 62.8735 73.4075 62.8735H74.6593C74.7984 62.8735 74.9375 62.8042 75.0766 62.6656C75.1461 62.5271 75.2157 62.3885 75.2157 62.1807V55.391C75.2157 55.0446 75.4939 54.8368 75.7721 54.8368H79.3885C80.5709 54.8368 81.5445 54.6289 82.4486 54.1439C83.2832 53.659 83.9787 52.9661 84.4655 52.0655C84.9524 51.1648 85.161 49.987 85.161 48.6014C85.161 47.2157 84.9524 46.0379 84.4655 45.068ZM81.9618 51.3726C81.4054 51.9962 80.5013 52.3426 79.319 52.3426H75.8416C75.4939 52.3426 75.2157 52.0655 75.2157 51.7191V45.2758C75.2157 44.9294 75.4939 44.6523 75.8416 44.6523H79.319C80.5013 44.6523 81.4054 44.9987 81.9618 45.6222C82.5182 46.3151 82.7964 47.2157 82.7964 48.4628C82.7964 49.8484 82.5182 50.7491 81.9618 51.3726Z" fill="#5E58A5"/>
<path d="M74.7286 62.8735H73.4768C73.2681 62.8735 73.1291 62.8042 73.0595 62.6656C72.99 62.5271 72.9204 62.3885 72.9204 62.1807V44.1673C72.9204 43.1281 73.755 42.2274 74.8677 42.2274H79.5274C80.7097 42.2274 81.753 42.4353 82.5875 42.9202C83.4221 43.4052 84.1176 44.098 84.6044 45.068C85.0912 45.9686 85.2999 47.1464 85.2999 48.5321C85.2999 49.9177 85.0912 51.0955 84.6044 51.9962C84.1176 52.8969 83.4221 53.659 82.5875 54.0747C81.753 54.5596 80.7097 54.7675 79.5274 54.7675H75.911C75.6328 54.7675 75.3546 54.9753 75.3546 55.3217V62.1114C75.3546 62.3192 75.285 62.4578 75.2155 62.5964C75.0068 62.8042 74.8677 62.8735 74.7286 62.8735ZM74.7982 42.366C73.755 42.366 72.9204 43.1974 72.9204 44.2366V62.2499C72.9204 62.4578 72.99 62.5964 73.0595 62.7349C73.1291 62.8735 73.2681 62.9428 73.4072 62.9428H74.6591C74.7982 62.9428 74.9373 62.8735 75.0764 62.7349C75.1459 62.5964 75.2155 62.4578 75.2155 62.2499V55.391C75.2155 55.0446 75.4937 54.7675 75.8414 54.7675H79.4579C80.6402 54.7675 81.6139 54.5596 82.4484 54.0747C83.283 53.5897 83.9785 52.8969 84.3958 51.9962C84.8826 51.0955 85.0912 49.9177 85.0912 48.5321C85.0912 47.1464 84.8826 45.9686 84.3958 45.068C83.9089 44.1673 83.283 43.4745 82.4484 42.9895C81.6139 42.5045 80.5706 42.2967 79.4579 42.2967H74.7982V42.366ZM79.3188 52.4119H75.8414C75.4937 52.4119 75.2155 52.1348 75.2155 51.7883V45.3451C75.2155 44.9987 75.4937 44.7216 75.8414 44.7216H79.3188C80.5011 44.7216 81.4052 45.068 81.9616 45.7608C82.518 46.4536 82.7962 47.3543 82.7962 48.6014C82.7962 49.8484 82.518 50.8184 81.8921 51.4419C81.4052 52.0655 80.5011 52.4119 79.3188 52.4119ZM75.8414 44.7909C75.5632 44.7909 75.285 45.068 75.285 45.3451V51.7883C75.285 52.0655 75.5632 52.3426 75.8414 52.3426H79.3188C80.4315 52.3426 81.3357 51.9962 81.8921 51.3727C82.4484 50.7491 82.7266 49.7792 82.7266 48.6014C82.7266 47.4236 82.4484 46.4536 81.8921 45.8301C81.3357 45.2065 80.4316 44.8601 79.2492 44.8601H75.8414V44.7909Z" fill="#5E58A5"/>
</svg>